<?xml version="1.0" encoding="UTF-8"?>
<!DOCTYPE svg PUBLIC "-//W3C//DTD SVG 1.1//EN" "http://www.w3.org/Graphics/SVG/1.1/DTD/svg11.dtd">
<!-- Madura Coffee — logo outline version for background pattern -->
<svg xmlns="http://www.w3.org/2000/svg" xml:space="preserve" width="673px" height="386px" version="1.1"
  style="shape-rendering:geometricPrecision; text-rendering:geometricPrecision; image-rendering:optimizeQuality; fill-rule:evenodd; clip-rule:evenodd"
  viewBox="-30 -50 1040.31 662.21"
  xmlns:xlink="http://www.w3.org/1999/xlink">
 <g id="Camada_x0020_1">
  <path fill="none" stroke="#FEB805" stroke-width="6" d="M7.95 294.2c0.7,1.58 0.61,4.68 0.69,6.86l8.7 -0.36 39.64 -1.14c0.95,-3.47 -3.81,-130.25 -4.29,-145.57 -0.49,-15.34 -1.91,-33.18 -1.28,-48.27l39.26 192.64c15.55,1.66 10.19,-3.64 24.31,-11.34 14.7,-8.02 20.35,-6.7 25.16,-8.46l0.67 -0.36c2.61,-7.28 16.85,-127.31 20.35,-154.41 0.85,-6.55 1.49,-15.51 3.01,-21.51l5.61 175.99c8.57,0.73 19.02,4.53 25.55,8.07 13.19,7.14 7.71,8.68 17.12,8.32 2.49,-0.1 4.97,-0.13 7.48,-0.3l-8.65 -271.18 -83.36 2.73 -17.34 165.22c-1.32,-3.06 -2.97,-15.94 -3.72,-20.28l-10.51 -61.7c-1.58,-9.33 -12.86,-78.98 -14.2,-81.83l-82.07 2.6c-0.91,3.23 6.69,221.09 7.54,247.82 0.14,4.39 0.86,12.54 0.33,16.46zm735.22 -237.83c7.79,-0.19 17.75,-2.06 21.52,3.36 3.86,5.56 5.59,33.05 0.08,42.23 -3.46,5.76 -12.36,4.42 -20.14,4.65l-1.46 -50.24zm2.96 101.25c-0.57,-1.36 -0.6,-2.11 -0.28,-3.92 1.62,-0.43 7.21,-1.08 8.06,0.42 5.36,-0.21 9.63,2.38 11.27,6.34 1.84,4.44 1.8,10.39 1.96,15.56l3.21 100.78 8.39 -0.2 0.01 -7.88c-0.85,-1.85 -0.94,-6.19 -0.55,-8.71l7.12 -0.32 37.6 -1.03c0.25,-11.85 -0.58,-24.92 -0.89,-36.89 -0.32,-12.11 -0.62,-24.29 -0.94,-36.4 -0.32,-12.01 -0.02,-23 -4.08,-33.63 -4.34,-11.37 -10.21,-14.25 -20.29,-17.28 3.5,-2.79 13.31,-4.98 19.13,-17.49 9.98,-21.46 5.74,-74.52 -5.58,-92.8 -12.98,-20.99 -32.77,-19.03 -53.62,-18.38 -4.79,0.15 -67.01,1.73 -70.14,2.35 -0.97,5.27 0.52,25.28 0.74,32.06 2.37,73.93 5.27,148.93 7.1,222.59l54.9 -1.74 -3.12 -103.43zm-305.38 -94.37c24.76,-0.72 24.4,0.5 25.41,32.04l3.53 110.81c0.24,7.3 1.9,20.7 -1.24,26.47 -3.83,7.04 -12.09,6.22 -21.93,6.45l-5.77 -175.77zm-47.98 209.16l117.02 -3.95c3.15,-3.01 7.33,-11.38 9.22,-16.89 2.23,-6.51 3.87,-13.57 4.7,-20.89 1.84,-16.18 0.64,-32.82 0.04,-49.14 -1.2,-33.08 -2.46,-66.16 -3.64,-99.23 -0.67,-18.71 -3.34,-36.75 -14.56,-50.08 -17.84,-21.18 -45.82,-16.95 -71.1,-16.15 -16.61,0.53 -33.19,1.18 -49.8,1.57l8.12 254.76zm-100.74 -67.6c0.98,-34.27 2.86,-69.89 4.28,-104.4l1.06 -25.72c0.1,-2.35 -0.26,-7.87 1.26,-8.16 2.24,0.35 1.77,0.51 2.03,3.2l7.67 64.9c2.8,22.87 6.17,46.57 8.24,69.44l-24.54 0.74zm30.05 42.45l3.19 26.39c12.04,2.16 26.69,7.22 34.38,16.25l19.07 -0.72c-2.49,-22.52 -5.75,-45.31 -8.66,-67.88 -2.9,-22.47 -5.75,-44.93 -8.64,-67.51 -2.88,-22.55 -5.77,-45.02 -8.63,-67.53 -0.31,-2.47 -7.58,-64.54 -9.06,-67.33l-91.46 3.04 -17.52 271.92c2.82,-0.06 15.8,-0.08 17.55,-0.82 1.99,-0.84 10.94,-13.86 35.86,-18.41l1.15 -26.36 32.77 -1.04zm577.22 -199.8l2.52 -0.1 16.17 137.56 -24.41 0.57 5.72 -138.03zm46.83 -45.99l-1.07 -1.47 -4.75 0.1 -86.46 2.52 -16.46 255.51c8.49,0.09 17.59,-0.51 26.14,-0.78 3.07,-0.1 24.92,-0.15 25.9,-1.22 1.07,-2.57 1.16,-22.15 1.35,-26.69 2.6,-1.15 28.01,-1.31 32.86,-1.41l5.23 43.7 51.44 -1.64 -34.18 -268.62zm-312.08 263.32l5.59 -0.58 0.34 4.51 0.06 9.4c2.22,-0.66 4.84,-2.06 6.45,-3.39l-0.13 -10.41c3.03,-0.08 6.06,-0.2 9.09,-0.26 4.54,-0.1 3.68,-0.16 5.77,-3.07 2.71,-3.79 4.34,-7.05 6.28,-11.77 3.81,-9.25 5.35,-19.12 5.98,-30.11 0.74,-13.02 -1.22,-54.59 -1.74,-70.46 -1.5,-46.62 -3.15,-93.22 -4.46,-140l-52.56 1.6c-0.63,5.58 3.31,109.17 3.58,118.13 0.46,15.04 3.19,76.99 2.3,89.13 -0.72,9.64 -2.71,16.99 -12.78,17.1 -9.93,0.11 -11.69,-8.54 -12.79,-17.67 -1.14,-9.41 -1.07,-19.82 -1.38,-29.4l-5.63 -176.38 -52.64 1.72c-0.52,9.9 0.63,23.24 0.97,33.46l3.22 101.11c0.72,22.37 0.91,45.39 2.27,67.65 1.05,17.29 5.58,40.14 17.87,51.92l74.34 -2.23zm-328.25 59.41c20.65,-2.73 19.44,20.41 19.97,37.25 0.58,18.52 1.18,37.08 1.78,55.6 0.6,18.84 1.19,37.63 1.79,56.47 0.53,16.48 3.21,40.21 -15.18,41.67 -19.98,1.58 -19.9,-20.42 -20.44,-37.51 -0.59,-18.67 -1.18,-37.27 -1.78,-55.95 -0.61,-18.78 -1.21,-37.52 -1.8,-56.3 -0.57,-18.13 -3.26,-38.72 15.66,-41.23zm-62 30.21c1.11,32.88 2.1,65.81 3.16,98.72 1.07,33.55 -0.66,62.25 17.63,84.65 17.9,21.9 52.8,24.01 77.12,14.05 6.59,-2.69 11.18,-6.27 15.61,-9.96 3.93,-3.29 8.11,-10.07 10.79,-14.76 12.59,-22.06 7.89,-65.44 7.02,-92.29 -0.54,-16.63 -1.05,-33.2 -1.59,-49.83 -0.67,-20.71 0.57,-50.5 -7.24,-69.18 -7.61,-18.21 -21.23,-29.88 -43.67,-32.99 -14.9,-2.06 -31.55,-0.76 -44.73,4.24 -9.56,3.63 -13.34,7.46 -19.06,13.02 -13.05,12.68 -15.66,36.03 -15.04,54.33zm-67.37 93.42c-1.92,7.76 3.87,47.09 -0.61,60.39 -3.9,11.57 -15.67,14.77 -24.18,9.72 -11.07,-6.57 -9.55,-25.52 -10.02,-40.27l-3.11 -97.28c-0.39,-12.25 -3.12,-37.08 3.26,-45.54 3.53,-4.67 10.32,-7.3 18.47,-5.46 6.88,1.56 9.97,6.3 11.6,13.47 1.75,7.69 2.2,38.1 2.42,47.85l46.13 -1.35c0.53,-6.42 -0.38,-16.54 -0.59,-23.33 -0.64,-19.95 0.04,-42.72 -12.67,-57.93 -16.92,-20.23 -45.71,-25.19 -71.14,-19.13 -14.01,3.34 -21.18,7.92 -29.75,17.87 -16.76,19.51 -14.6,55.59 -13.84,79.65l2.93 91.7c0.61,19.2 0.19,42.57 12.05,58.96 10.67,14.76 25.11,23.89 45.5,24.9 20.58,1.03 40.26,-2.99 55.02,-15.76 3.1,-2.69 7.63,-8.48 9.97,-13.55 5.87,-12.69 7.15,-24.91 6.67,-40.52 -0.47,-15.26 -1.08,-30.49 -1.45,-45.82l-46.66 1.43zm611.77 -178.61c-0.76,4.39 1.6,58.46 1.91,67.85l4.3 134.93c0.72,22.14 0.88,44.94 2.17,66.97 3.75,1.04 45.3,-1.15 52.78,-1.39 17.59,-0.59 35.82,-1.64 53.35,-1.64l-1.42 -44.71c-4.44,-0.97 -23.94,0.38 -29.89,0.57 -5.01,0.16 -25.49,1.42 -28.76,0.61 -0.3,-9.34 -2.85,-69.27 -2.07,-73.12l52.48 -1.61 -1.37 -43.02c-3.79,-1.12 -43.58,1.53 -52.76,1.21l-2.02 -63.68 55.02 -1.64 -1.4 -44.69 -102.32 3.36zm-123.74 274.21l106.15 -3.28 -1.42 -45.02 -58.65 1.84c-0.22,-10.17 -2.88,-69.18 -2.02,-73.54l52.43 -1.5 -1.48 -43.42 -52.65 1.5 -1.86 -63.57 54.88 -1.62 -1.41 -44.38c-3.83,-0.72 -43.94,1.06 -51.39,1.29 -17.04,0.52 -34.06,1.15 -51.2,1.6l8.62 270.1zm-80.59 -169.03c-1.33,0.61 -4.06,0.76 -5.97,0.34l-0.23 -6.58 -1.26 -47.2 55.56 -1.76 -1.41 -45.06 -102.31 3.31c-0.99,5.03 0.6,27.13 0.81,33.85 2.48,78.37 5.7,158.27 7.53,236.25l46.53 -1.46c1.15,-3.96 -1.38,-54.84 -1.65,-63.39 -0.32,-9.86 -2.45,-58.16 -1.84,-63.53l52.56 -1.62 -1.41 -44.42 -46.91 1.27zm-131.86 55.31c-0.64,-1.44 -0.79,-4.5 -0.36,-6.47l4.79 -0.21 47.88 -1.35 -1.4 -44.13c-8.24,-1.42 -43.06,2.4 -52.77,1.23l-1.59 -53.82 55.56 -1.62 -0.98 -35.62 -1.06 -9.25 -8.25 0.25 -93.4 2.74c-0.92,3.81 0.57,28.02 0.76,33.85 2.51,78.36 5.68,158.26 7.53,236.26l46.9 -1.36 -3.61 -120.5z"/>
 </g>
</svg>
